<svg width="22" height="21" viewBox="0 0 22 21" fill="none" xmlns="http://www.w3.org/2000/svg">
<path d="M21.5 10.5C21.5024 10.8076 21.4089 11.1083 21.2324 11.3604C21.056 11.6124 20.8055 11.8032 20.5156 11.9062L14.5681 14.0691L12.4062 20.0156C12.2997 20.3027 12.1078 20.5503 11.8565 20.7251C11.6051 20.8999 11.3062 20.9936 11 20.9936C10.6938 20.9936 10.3949 20.8999 10.1435 20.7251C9.89216 20.5503 9.7003 20.3027 9.59375 20.0156L7.43093 14.0625L1.48437 11.9062C1.1973 11.7997 0.949725 11.6078 0.774892 11.3565C0.600059 11.1051 0.506348 10.8062 0.506348 10.5C0.506348 10.1938 0.600059 9.89492 0.774892 9.64354C0.949725 9.39216 1.1973 9.2003 1.48437 9.09375L7.4375 6.93093L9.59375 0.98437C9.7003 0.697304 9.89216 0.449725 10.1435 0.274892C10.3949 0.100059 10.6938 0.00634766 11 0.00634766C11.3062 0.00634766 11.6051 0.100059 11.8565 0.274892C12.1078 0.449725 12.2997 0.697304 12.4062 0.98437L14.5691 6.9375L20.5156 9.09375C20.8055 9.1968 21.056 9.3876 21.2324 9.63962C21.4089 9.89165 21.5024 10.1924 21.5 10.5Z" fill="#AD28EB"/>
</svg>
